# xmcd
#
# Track frame offsets:
# 150
# 6508
# 13376
# 18674
# 25579
# 32386
# 49766
# 73745
# 80099
# 90926
# 99627
# 111266
# 123514
# 131575
# 139661
# 150496
# 163976
# 183851
# 193111
# 198458
# 205810
# 215677
# 219669
# 229109
# 233105
# 237494
# 243182
# 249650
# 253181
# 256401
# 262038
# 269235
# 274753
# 284401
# 292670
# 298566
# 303788
# 307544
# 313640
# 320682
# 333541
# 337756
# 348836
#
# Disc length: 4753 seconds
#
#
# Revision: 0
# Processed by: cddbd v1.5.2PL0 Copyright (c) Steve Scherf et al.
# Submitted via: FreeRIP 2.52 
#
DISCID=84128f2b
DTITLE=Шнейдер, Виктор - Музыка на чужие песни
DYEAR=1990
DGENRE=Chanson
TTITLE0=Visitors from future
TTITLE1=Времени нету
TTITLE2=Не признаем друг друга мы за своих
TTITLE3=Небольшая компания, свечи, чай
TTITLE4=Африка
TTITLE5=Петербург - Амстердам - Проезд
TTITLE6=Баллада о драконе
TTITLE7=Autorequiem 1
TTITLE8=Поучения вурдалака малолетнему сыну
TTITLE9=Орел
TTITLE10=Я пел о драконе и Ланселоте
TTITLE11=XIX век уходит
TTITLE12=Восьмимартовская
TTITLE13=Молчащие будут молчать
TTITLE14=Говорили, что все пули мимо нас
TTITLE15=Башня
TTITLE16=Библейский сюжет
TTITLE17=Kansas City
TTITLE18=Сиду
TTITLE19=Стоит на окне бутылка
TTITLE20=У подножья одной из карпатских гор
TTITLE21=Ante lucem
TTITLE22=Серенада 1
TTITLE23=Песнь заблудшего
TTITLE24=Упавший самолет
TTITLE25=Вырожденец и бездельник
TTITLE26=Упавший самолет
TTITLE27=Отмщенья, Господь
TTITLE28=Лаборантка
TTITLE29=Как будто чем-то заражен
TTITLE30=Воздушный шар
TTITLE31=Любовницы моих друзей
TTITLE32=Аленький цветочек
TTITLE33=Биохимическая колыбельная
TTITLE34=Бродский. Колыбельная
TTITLE35=Бродский. Песня освобожденных
TTITLE36=Бродский. Сокол ясный
TTITLE37=Гумилев. Основатели
TTITLE38=Олейников. Графин с ледяною водою
TTITLE39=Олейников. Муха
TTITLE40=Олейников. Ниточка
TTITLE41=Шекспир. Страстный пилигрим
TTITLE42=Бродский. Зимняя свадьба
EXTD=
EXTT0=
EXTT1=
EXTT2=
EXTT3=
EXTT4=
EXTT5=
EXTT6=
EXTT7=
EXTT8=
EXTT9=
EXTT10=
EXTT11=
EXTT12=
EXTT13=
EXTT14=
EXTT15=
EXTT16=
EXTT17=
EXTT18=
EXTT19=
EXTT20=
EXTT21=
EXTT22=
EXTT23=
EXTT24=
EXTT25=
EXTT26=
EXTT27=
EXTT28=
EXTT29=
EXTT30=
EXTT31=
EXTT32=
EXTT33=
EXTT34=
EXTT35=
EXTT36=
EXTT37=
EXTT38=
EXTT39=
EXTT40=
EXTT41=
EXTT42=
PLAYORDER=
